HIERARCHY
ROOT Hips
{
 OFFSET 0.000000 0.000000 0.000000
 CHANNELS 6 Xposition Yposition Zposition Yrotation Xrotation Zrotation
 JOINT Chest
 {
  OFFSET 0.000000 9.585900 0.002600
  CHANNELS 3 Yrotation Xrotation Zrotation
  JOINT Chest2
  {
   OFFSET 0.000000 9.601200 -0.005300
   CHANNELS 3 Yrotation Xrotation Zrotation
   JOINT Chest3
   {
    OFFSET 0.000000 9.561800 0.000000
    CHANNELS 3 Yrotation Xrotation Zrotation
    JOINT Chest4
    {
     OFFSET 0.000000 9.552100 0.000000
     CHANNELS 3 Yrotation Xrotation Zrotation
     JOINT Neck
     {
      OFFSET 0.000000 14.453000 0.000000
      CHANNELS 3 Yrotation Xrotation Zrotation
      JOINT Head
      {
       OFFSET 0.000000 8.936500 -0.011300
       CHANNELS 3 Yrotation Xrotation Zrotation
       End Site
       {
        OFFSET 0.000000 17.073600 -0.006000
       }
      }
     }
     JOINT RightCollar
     {
      OFFSET -2.921100 9.558500 0.000000
      CHANNELS 3 Yrotation Xrotation Zrotation
      JOINT RightShoulder
      {
       OFFSET -13.519700 0.000000 0.000000
       CHANNELS 3 Yrotation Xrotation Zrotation
       JOINT RightElbow
       {
        OFFSET 0.000000 -29.696600 0.000000
        CHANNELS 3 Yrotation Xrotation Zrotation
        JOINT RightWrist
        {
         OFFSET 0.000000 -24.004700 0.000000
         CHANNELS 3 Yrotation Xrotation Zrotation
         End Site
         {
          OFFSET 0.000000 -17.728500 0.000000
         }
        }
       }
      }
     }
     JOINT LeftCollar
     {
      OFFSET 2.921100 9.558500 0.000000
      CHANNELS 3 Yrotation Xrotation Zrotation
      JOINT LeftShoulder
      {
       OFFSET 13.519700 0.000000 0.000000
       CHANNELS 3 Yrotation Xrotation Zrotation
       JOINT LeftElbow
       {
        OFFSET 0.000000 -29.696600 0.000000
        CHANNELS 3 Yrotation Xrotation Zrotation
        JOINT LeftWrist
        {
         OFFSET 0.000000 -24.004700 0.000000
         CHANNELS 3 Yrotation Xrotation Zrotation
         End Site
         {
          OFFSET 0.000000 -17.728500 0.000000
         }
        }
       }
      }
     }
    }
   }
  }
 }
 JOINT RightHip
 {
  OFFSET -7.771700 -0.012900 -0.001300
  CHANNELS 3 Yrotation Xrotation Zrotation
  JOINT RightKnee
  {
   OFFSET 0.000000 -40.869800 0.001200
   CHANNELS 3 Yrotation Xrotation Zrotation
   JOINT RightAnkle
   {
    OFFSET 0.000000 -39.717900 0.002100
    CHANNELS 3 Yrotation Xrotation Zrotation
    JOINT RightToe
    {
     OFFSET 0.000000 -4.965400 11.033500
     CHANNELS 3 Yrotation Xrotation Zrotation
     End Site
     {
      OFFSET 0.000000 -1.423100 5.872300
     }
    }
   }
  }
 }
 JOINT LeftHip
 {
  OFFSET 7.771700 -0.012900 -0.001300
  CHANNELS 3 Yrotation Xrotation Zrotation
  JOINT LeftKnee
  {
   OFFSET 0.000000 -40.869800 0.001200
   CHANNELS 3 Yrotation Xrotation Zrotation
   JOINT LeftAnkle
   {
    OFFSET 0.000000 -39.717900 0.002100
    CHANNELS 3 Yrotation Xrotation Zrotation
    JOINT LeftToe
    {
     OFFSET 0.000000 -4.965400 11.033500
     CHANNELS 3 Yrotation Xrotation Zrotation
     End Site
     {
      OFFSET 0.000000 -1.423100 5.872300
     }
    }
   }
  }
 }
}
MOTION
Frames: 12
Frame Time: 0.008333
0.000000 85.388000 0.000000 0.000000 -5.767877 0.000000 0.000000 11.653817 0.000000 0.000000 -5.885947 0.000000 0.000000 -0.000000 0.000000 0.000000 -0.000000 0.000000 0.000000 12.528835 0.000000 0.000000 0.711642 0.000000 0.000000 -0.000000 0.000000 0.000000 0.000000 -90.000000 0.000000 -2.309062 0.000000 0.000000 2.309062 0.000000 0.000000 -0.000000 0.000000 0.000000 -0.000000 90.000000 0.000000 -2.309062 0.000000 0.000000 2.309062 0.000000 0.000000 8.520406 0.000000 0.000000 1.905762 0.000000 -0.000000 -4.658285 0.000000 0.000000 -0.000000 0.000000 0.000000 8.520406 0.000000 0.000000 1.905762 0.000000 -0.000000 -4.658285 0.000000 0.000000 -0.000000 0.000000
-209.331224 48.389618 6.521523 172.646891 -38.167919 -3.495268 2.259927 20.209783 2.922818 0.235475 2.535595 0.333670 0.371612 4.194714 0.537994 1.840769 17.313087 2.463999 7.820650 20.929436 -0.570791 14.354786 3.476570 -3.253760 -2.011642 -8.129149 -2.918689 2.610272 -3.312432 -7.468109 -50.044469 -51.760275 96.371048 3.071968 1.815074 -14.157628 -3.762411 -6.036211 6.022994 -2.988804 -0.341031 8.573065 72.484101 -59.339830 -109.768690 6.039067 5.532960 10.809557 1.913895 -47.306341 -0.665131 -179.562912 83.963546 -167.643284 -28.091031 -7.409028 0.864727 -0.034285 -1.746181 -0.846792 -17.265764 -48.008227 20.420137 -76.796964 69.345332 -79.943122 30.115020 8.769495 10.117844 0.024683 0.110199 -0.015022
-209.335774 48.383684 6.516168 172.762625 -38.279906 -3.508455 2.225757 20.202502 2.937435 0.218591 2.562424 0.326821 0.366115 4.197419 0.540995 1.818388 17.318475 2.473233 7.850043 20.942926 -0.598739 14.415190 3.507761 -3.310884 -2.006562 -8.127193 -2.968616 2.424463 -3.316137 -7.347108 -50.564480 -52.248624 96.522560 3.152830 1.811614 -14.079414 -3.759432 -6.032975 6.064418 -2.771419 -0.401799 8.535009 72.457525 -59.232306 -109.596562 6.059164 5.531522 10.763642 2.145213 -47.205189 -0.687059 178.752305 83.961646 -169.347586 -27.975506 -7.436860 0.942735 -0.031660 -1.328677 -0.639764 -17.246836 -47.915724 20.252377 -76.778465 69.362522 -79.895343 30.103187 8.746958 10.110815 0.020634 0.116779 -0.015651
-209.339040 48.374049 6.515490 172.854894 -38.373250 -3.511352 2.203131 20.202832 2.947387 0.215494 2.563731 0.329091 0.360967 4.199418 0.544673 1.798073 17.322234 2.485595 7.890758 20.951801 -0.636925 14.499215 3.532746 -3.390201 -2.008873 -8.120041 -3.025013 2.229541 -3.340739 -7.240666 -51.062490 -52.725250 96.659330 3.229235 1.821126 -13.998094 -3.768317 -6.027662 6.108090 -2.519320 -0.463294 8.494247 72.432889 -59.103660 -109.446222 6.077137 5.510999 10.662693 2.389749 -47.131422 -0.688509 176.805990 83.964724 -171.303124 -27.857191 -7.457863 1.008486 -0.029357 -0.998117 -0.477726 -17.228799 -47.839215 20.105676 -76.745287 69.376207 -79.838738 30.105996 8.742575 10.097078 0.017005 0.127960 -0.016240
-209.342322 48.364324 6.515595 172.947509 -38.471397 -3.508488 2.183610 20.207425 2.956036 0.212646 2.565088 0.331668 0.356281 4.201509 0.548834 1.779795 17.325885 2.500222 7.950603 20.952702 -0.684062 14.620950 3.546052 -3.491693 -2.017261 -8.108832 -3.083927 2.024532 -3.384482 -7.151858 -51.522940 -53.166858 96.769969 3.300117 1.840024 -13.914660 -3.807926 -5.981941 6.107113 -2.216657 -0.559328 8.503689 72.399278 -58.954596 -109.300340 6.099756 5.468202 10.518789 2.642611 -47.054371 -0.685167 174.579331 83.969377 -173.529696 -27.753511 -7.475167 1.067360 -0.026428 -0.737904 -0.349309 -17.209907 -47.757295 19.954275 -76.702076 69.389558 -79.782818 30.113095 8.736150 10.087949 0.014482 0.148405 -0.019601
-209.345339 48.354803 6.517029 173.049348 -38.567158 -3.508539 2.159487 20.206744 2.965623 0.209775 2.566561 0.334391 0.351736 4.203798 0.553231 1.761935 17.329775 2.515782 8.038943 20.942753 -0.739273 14.797410 3.543390 -3.616623 -2.026931 -8.093807 -3.146578 1.809458 -3.439155 -7.074268 -51.933016 -53.557601 96.847594 3.366343 1.867139 -13.827903 -3.834580 -5.994055 6.175824 -1.921663 -0.598175 8.440326 72.358663 -58.794145 -109.148538 6.133667 5.409199 10.343381 2.892661 -46.979340 -0.675057 172.160887 83.971848 -175.942324 -27.653962 -7.487564 1.118620 -0.022441 -0.534278 -0.245155 -17.205886 -47.674685 19.807777 -76.625131 69.395941 -79.694410 30.121262 8.749524 10.072957 0.009711 0.146215 -0.015244
-209.348320 48.347813 6.517241 173.141528 -38.677996 -3.497994 2.144518 20.217553 2.975317 0.207063 2.568267 0.337259 0.347438 4.206521 0.557859 1.707066 17.381743 2.497630 8.210433 20.869418 -0.785937 15.046950 3.519022 -3.770140 -2.016890 -8.103816 -3.184546 1.600302 -3.517980 -7.010483 -52.287837 -53.889044 96.890910 3.420234 1.902781 -13.737774 -3.838675 -6.062819 6.273824 -1.610341 -0.616290 8.372604 72.328595 -58.636662 -108.996467 6.182805 5.341955 10.144268 3.157450 -46.888725 -0.663567 169.676584 83.969052 -178.415284 -27.560261 -7.494774 1.163908 -0.017113 -0.376384 -0.159159 -17.194352 -47.576318 19.660351 -76.562988 69.409902 -79.645947 30.126575 8.744200 10.072021 -0.003065 0.143974 -0.014279
-209.350894 48.341963 6.518167 173.239285 -38.787061 -3.491688 2.126880 20.225260 2.989843 0.204721 2.570901 0.340340 0.343634 4.210653 0.562802 1.710686 17.364131 2.531599 8.366998 20.851787 -0.868895 15.393450 3.468710 -3.959157 -2.039528 -8.071187 -3.271002 1.373998 -3.578732 -6.953735 -52.592058 -54.157356 96.892097 3.453317 1.943349 -13.631938 -3.919417 -6.069927 6.310522 -1.279997 -0.622888 8.324117 72.327114 -58.495280 -108.848584 6.249857 5.276274 9.928541 3.416549 -46.798878 -0.646800 167.252840 83.959615 179.176064 -27.466887 -7.496827 1.202816 -0.011017 -0.254964 -0.086638 -17.197515 -47.477177 19.525211 -76.477084 69.406387 -79.575005 30.141321 8.764593 10.065928 -0.014325 0.128961 -0.011053
-209.353536 48.337614 6.518994 173.337381 -38.898619 -3.484792 2.108410 20.237406 3.004372 0.202529 2.574888 0.343368 0.340007 4.216813 0.567658 1.716712 17.351459 2.566639 8.588311 20.814300 -0.963449 15.866362 3.393068 -4.186901 -2.035408 -8.075456 -3.369762 1.133344 -3.613323 -6.897247 -52.856177 -54.373877 96.845500 3.460092 1.983456 -13.490687 -4.014803 -6.108499 6.349939 -0.947191 -0.600915 8.269871 72.365810 -58.372741 -108.698152 6.329072 5.225338 9.698943 3.666302 -46.706686 -0.623395 165.024280 83.941534 176.957111 -27.368423 -7.495388 1.236962 -0.005141 -0.161849 -0.022885 -17.208026 -47.373837 19.400379 -76.373209 69.404092 -79.497155 30.150951 8.797405 10.062325 -0.031184 0.098515 -0.007863
-209.356170 48.334084 6.520193 173.441070 -39.007626 -3.483211 2.083679 20.251084 3.019791 0.200012 2.580054 0.346099 0.335922 4.224857 0.572082 1.699915 17.365672 2.580501 8.913265 20.737226 -1.056770 16.488211 3.300046 -4.453602 -2.009198 -8.102578 -3.453192 0.905281 -3.652262 -6.845259 -53.101106 -54.558203 96.759513 3.442211 2.020605 -13.300997 -4.097158 -6.197100 6.410401 -0.612655 -0.550732 8.210446 72.441943 -58.263565 -108.528043 6.402178 5.189405 9.447871 3.893378 -46.618464 -0.583805 163.109169 83.920446 175.045111 -27.306609 -7.491714 1.273303 -0.001925 -0.089378 0.031207 -17.203262 -47.277990 19.270887 -76.276197 69.394445 -79.412521 30.159647 8.838394 10.062625 -0.036471 0.078868 -0.006385
-209.358789 48.332733 6.519647 173.538959 -39.129835 -3.479989 2.064764 20.279976 3.038484 0.197013 2.586116 0.348657 0.331152 4.234306 0.576222 1.679774 17.382658 2.592425 9.319405 20.650790 -1.155356 17.259942 3.202350 -4.753545 -1.965152 -8.144582 -3.539391 0.677551 -3.673235 -6.795908 -53.364123 -54.729407 96.649379 3.418243 2.064087 -13.031278 -4.186320 -6.313136 6.482700 -0.271434 -0.467794 8.145444 72.537917 -58.156947 -108.317710 6.453265 5.158241 9.167393 4.107263 -46.518785 -0.529478 161.549127 83.899364 173.484781 -27.301624 -7.488314 1.315940 -0.002043 -0.032548 0.075580 -17.193538 -47.168920 19.141902 -76.220273 69.394927 -79.375442 30.155954 8.857231 10.059037 -0.031845 0.071438 -0.002167
-209.363517 48.331858 6.518756 173.643062 -39.251185 -3.472285 2.041780 20.308961 3.050379 0.193903 2.592707 0.351140 0.326081 4.244558 0.580150 1.658321 17.401145 2.603203 9.794678 20.564102 -1.251543 18.156869 3.115714 -5.068300 -1.911898 -8.196138 -3.627187 0.459408 -3.673547 -6.749366 -53.686826 -54.913866 96.527731 3.418958 2.133395 -12.629005 -4.285919 -6.459059 6.572226 0.080636 -0.342718 8.079767 72.642788 -58.037395 -108.062824 6.480556 5.133193 8.861484 4.313756 -46.420568 -0.496395 160.298000 83.865997 172.222317 -27.260468 -7.489625 1.354365 -0.001472 0.011111 0.119035 -17.216218 -47.057206 19.024650 -76.119634 69.398258 -79.317178 30.155066 8.912232 10.052362 -0.028809 0.037380 0.004442
